<?xml version="1.0" encoding="UTF-8" standalone="no"?>
<!DOCTYPE svg PUBLIC "-//W3C//DTD SVG 1.1//EN" "http://www.w3.org/Graphics/SVG/1.1/DTD/svg11.dtd">
<svg width="100%" height="100%" viewBox="0 0 2222 1036" version="1.1" xmlns="http://www.w3.org/2000/svg" xmlns:xlink="http://www.w3.org/1999/xlink" xml:space="preserve" xmlns:serif="http://www.serif.com/" style="fill-rule:evenodd;clip-rule:evenodd;stroke-linejoin:round;stroke-miterlimit:2;">
    <g transform="matrix(12.203504,0,0,12.203504,-10629.337658,-6976.645868)">
        <path d="M872.972,632.274L885.416,595.897L895.164,595.897L907.923,632.274L899.639,632.274L893.809,614.726C893.1,612.46 892.386,609.978 891.667,607.281C890.948,604.584 890.189,601.646 889.391,598.465L891.008,598.465C890.235,601.661 889.511,604.614 888.837,607.326C888.164,610.038 887.492,612.505 886.823,614.726L881.2,632.274L872.972,632.274ZM880.747,623.832L880.747,617.986L900.149,617.986L900.149,623.832L880.747,623.832Z" style="fill:white;fill-rule:nonzero;"/>
    </g>
    <g transform="matrix(12.094894,0,0,12.055185,-10516.088006,-6888.262674)">
        <path d="M916.479,632.274L906.713,595.897L914.85,595.897L919.07,613.782C919.414,615.286 919.729,616.89 920.014,618.594C920.3,620.297 920.579,622.006 920.853,623.72C921.127,625.434 921.395,627.081 921.658,628.662L920.345,628.662C920.642,627.081 920.933,625.434 921.22,623.72C921.507,622.006 921.808,620.297 922.123,618.594C922.438,616.89 922.776,615.286 923.138,613.782L927.585,595.897L935.337,595.897L939.761,613.782C940.131,615.286 940.471,616.89 940.782,618.594C941.093,620.297 941.396,622.006 941.69,623.72C941.985,625.434 942.28,627.081 942.577,628.662L941.217,628.662C941.497,627.081 941.771,625.434 942.04,623.72C942.309,622.006 942.593,620.297 942.89,618.594C943.187,616.89 943.5,615.286 943.828,613.782L948.049,595.897L956.209,595.897L946.42,632.274L937.913,632.274L933.087,613.67C932.566,611.601 932.12,609.361 931.75,606.949C931.38,604.537 930.972,602.061 930.527,599.521L932.373,599.521C931.875,602.001 931.465,604.432 931.145,606.812C930.825,609.193 930.386,611.479 929.826,613.67L924.998,632.274L916.479,632.274Z" style="fill:white;fill-rule:nonzero;"/>
    </g>
    <g transform="matrix(12.413096,0,0,12.413096,-10834.22636,-7105.353333)">
        <path d="M966.196,624.049L966.196,617.261C966.939,615.91 967.67,614.664 968.391,613.521C969.112,612.378 969.901,611.236 970.759,610.093C971.618,608.951 972.604,607.703 973.717,606.348L982.617,595.897L991.728,595.897L976.373,613.668L975.759,613.446L966.196,624.049ZM960.689,632.274L960.689,595.897L968.149,595.897L968.149,605.843L968.01,615.104L968.149,618.746L968.149,632.274L960.689,632.274ZM983.307,632.274L972.521,615.864L977.221,610.3L992.109,632.274L983.307,632.274Z" style="fill:white;fill-rule:nonzero;"/>
    </g>
    <g transform="matrix(12.3083,0,0,12.3083,-10731.333797,-7037.792738)">
        <path d="M996.651,632.274L996.651,595.897L1021.007,595.897L1021.007,602.082L1004.111,602.082L1004.111,610.862L1019.719,610.862L1019.719,616.941L1004.111,616.941L1004.111,626.089L1021.056,626.089L1021.056,632.274L996.651,632.274Z" style="fill:white;fill-rule:nonzero;"/>
    </g>
    <g transform="matrix(12.3083,0,0,12.3083,-10743.263336,-7037.792738)">
        <path d="M1027.022,632.274L1027.022,595.897L1051.379,595.897L1051.379,602.082L1034.482,602.082L1034.482,610.862L1050.09,610.862L1050.09,616.941L1034.482,616.941L1034.482,626.089L1051.427,626.089L1051.427,632.274L1027.022,632.274Z" style="fill:white;fill-rule:nonzero;"/>
    </g>
</svg>
